<svg xml:space="preserve" width="354.687" height="300" xmlns="http://www.w3.org/2000/svg"><defs><clipPath clipPathUnits="userSpaceOnUse" id="a"><path d="M0 141.732h141.732V0H0z"/></clipPath></defs><g style="display:inline"><path d="M0 0h-40.5v40.5L-27 54h40.5V13.5z" style="fill:#292b66;fill-opacity:1;fill-rule:nonzero;stroke:none" transform="matrix(3.04188 0 0 -3.04188 210.96 164.261)"/><path d="M343.649 225.558h-92.397v92.397h92.397z" style="fill:#918f90;fill-opacity:1;fill-rule:nonzero;stroke:none;stroke-width:2.28141" transform="matrix(1.33333 0 0 -1.33333 -206.172 423.94)"/><path d="M328.25 210.159h-92.398v92.397h92.397z" style="fill:#fff;fill-opacity:1;fill-rule:nonzero;stroke:none;stroke-width:2.28141" transform="matrix(1.33333 0 0 -1.33333 -206.172 423.94)"/><path d="M312.85 194.76h-92.397v92.396h92.397z" style="fill:#292b66;fill-opacity:1;fill-rule:nonzero;stroke:none;stroke-width:2.28141" transform="matrix(1.33333 0 0 -1.33333 -206.172 423.94)"/><g clip-path="url(#a)" transform="matrix(3.04188 0 0 -3.04188 -39.544 361.984)"><path d="M0 0c1.475.539 2.946.882 4.415 1.025C5.881 1.17 6.766.943 7.066.346c.301-.596.144-1.171-.47-1.725-.615-.555-1.444-.858-2.489-.909-1.044-.053-2.181-.613-3.409-1.676C-.53-5.029-1.25-6.3-1.459-7.775c-.211-1.478-.183-2.498.082-3.068.264-.568.546-1.673.846-3.31.3-1.641.055-3.04-.736-4.196-.79-1.155-1.629-1.996-2.517-2.515-.889-.52-1.986-.896-3.29-1.128-1.305-.232-2.415-.34-3.329-.324-.916.014-1.892.2-2.93.556-1.037.356-1.664 1.063-1.884 2.124-.219 1.061 1.739 2.987 5.874 5.778 4.134 2.79 4.455 2.869.966.238-3.492-2.634-4.867-4.281-4.128-4.942.738-.661 1.632-.845 2.682-.551 1.049.292 1.88.692 2.494 1.205a4.784 4.784 0 0 1 1.38 1.88c.306.74.447 1.429.422 2.063-.026.635-.284 2.049-.775 4.241-.491 2.192-.461 3.834.09 4.924.55 1.09 1.355 2.028 2.413 2.814C-2.741-1.201-1.475-.541 0 0" style="fill:#2c2963;fill-opacity:1;fill-rule:nonzero;stroke:none" transform="translate(28.233 42.694)"/><path d="M0 0c.775.297 1.444.397 2.011.305.566-.095.956-.307 1.17-.633.214-.328-.029-1.55-.726-3.667-.698-2.117-1.17-3.919-1.416-5.409-.248-1.491-.084-2.541.492-3.158.573-.616 1.586-.851 3.036-.706 1.449.145 3.028.864 4.736 2.163 1.708 1.294 1.902 1.355.58.179A134.702 134.702 0 0 0 6.2-14.099c-1.135-.938-2.125-1.528-2.971-1.768-.849-.238-1.828-.28-2.942-.119-1.115.16-2.016.512-2.7 1.06a5.965 5.965 0 0 0-1.613 1.951c-.391.751-.41 1.669-.06 2.748.349 1.079.576 2.013.683 2.801.105.785-.308.75-1.239-.106-.932-.859-2.074-1.79-3.429-2.797a29.262 29.262 0 0 0-4.306-2.654c-1.516-.764-2.706-1.251-3.571-1.462a18.46 18.46 0 0 0-2.59-.444c-.862-.084-1.656.05-2.382.4-.727.35-1.175.887-1.344 1.608-.172.722.032 1.789.607 3.203.575 1.412 1.534 3.336 2.879 5.765 1.343 2.43.993 3.747-1.055 3.949-2.047.204-3.578.573-4.595 1.113-1.014.539-.394.456 1.865-.243 2.257-.699 3.834-.662 4.727.112.892.773 1.715 1.224 2.468 1.354a4.571 4.571 0 0 0 2.141-.121c.673-.208 1.107-.563 1.299-1.058.192-.497.146-1.08-.141-1.752-.287-.671-1.253-2.43-2.898-5.278-1.645-2.848-1.715-4.114-.206-3.802 1.507.314 4.228 1.931 8.164 4.852C-3.075-1.867-.738-.27 0 0" style="fill:#2c2963;fill-opacity:1;fill-rule:nonzero;stroke:none" transform="translate(56.187 39.055)"/><path d="M0 0c-.792.773-1.803.58-3.031-.583-1.23-1.163-1.977-2.405-2.239-3.726-.262-1.321-.187-2.253.224-2.794.41-.543.845-.859 1.302-.952.456-.091 1.109.13 1.962.665.85.536 1.559 1.712 2.124 3.536C.906-2.03.791-.748 0 0m-2.626 6.682c.704.495 1.562.803 2.572.929 1.009.123 1.841.067 2.496-.169a3.606 3.606 0 0 0 1.654-1.233c.447-.585 1.586-.879 3.418-.882 1.831-.004 4.11-.048 6.838-.136 2.726-.088 2.148-.141-1.735-.161-3.883-.019-6.091-.103-6.624-.248-.533-.146-.763-.642-.686-1.489.076-.847.132-1.743.171-2.689.038-.945.028-1.994-.03-3.148-.058-1.156-.182-2.012-.376-2.572a9.016 9.016 0 0 0-.855-1.762c-.379-.614-.931-1.26-1.657-1.937-.727-.68-1.618-1.305-2.671-1.879-1.055-.575-2.024-1.002-2.908-1.284-.884-.281-1.838-.28-2.856.006-1.022.284-1.848.722-2.477 1.31-.63.587-1.132 1.196-1.504 1.822-.374.624-.519 1.714-.437 3.263.084 1.547.325 2.79.729 3.729.4.938.915 2.351 1.74 3.367.821 1.014 1.401 1.828 2.519 2.882 1.119 1.052 2.011 1.811 2.679 2.281" style="fill:#2c2963;fill-opacity:1;fill-rule:nonzero;stroke:none" transform="translate(93.201 33.317)"/><path d="M0 0c3.572 1.011 5.993 1.237 7.265.682C8.537.125 9.154-.689 9.116-1.76c-.038-1.072-1.319-1.626-3.848-1.669C2.74-3.471.551-3.948-1.296-4.861c-1.849-.914-3.063-2.274-3.644-4.082-.581-1.809-.15-3.19 1.297-4.144 1.448-.954 2.922-1.409 4.426-1.364 1.501.045 2.832.199 3.991.461 1.16.261 2.513.704 4.062 1.328 1.551.622 3.298 1.53 5.242 2.723 1.943 1.193 1.894 1.031-.145-.484-2.044-1.516-3.898-2.788-5.564-3.817-1.667-1.03-3.146-1.781-4.437-2.25a18.699 18.699 0 0 0-3.809-.973c-1.248-.176-2.742-.207-4.478-.094-1.739.115-3.374.811-4.909 2.09-1.533 1.279-2.274 2.779-2.224 4.498.049 1.718.424 3.164 1.123 4.336.699 1.172 1.754 2.317 3.166 3.436C-5.787-2.081-3.388-1.016 0 0" style="fill:#2c2963;fill-opacity:1;fill-rule:nonzero;stroke:none" transform="translate(114.102 40.703)"/><path d="M0 0c-.773-.241-1.922-.914-3.442-2.015-1.523-1.102-2.566-2.133-3.133-3.096-.568-.963-.728-1.738-.482-2.318.245-.582 1.362-.114 3.349 1.404C-1.721-4.511-.416-3.256.207-2.267c.623.99.945 1.676.971 2.056C1.203.17.811.239 0 0m3.919 21.891c.448.471 1.056.679 1.825.625a4.054 4.054 0 0 0 2.127-.797c.65-.477 1.344-1.158 2.078-2.043.735-.887 1.362-2.652 1.881-5.296.521-2.645-.496-6.44.443-7.188.939-.75 1.375-1.433 1.309-2.051-.065-.62-.451-1.12-1.154-1.503-.703-.384-1.383-.499-2.039-.346-.657.151-1.431-.61-2.322-2.286A31.952 31.952 0 0 0 4.82-3.908c-1.275-1.6-2.435-2.94-3.479-4.021-1.046-1.082-2.467-2.207-4.265-3.374-1.799-1.17-3.192-1.828-4.184-1.98-.992-.153-1.853-.133-2.581.064-.73.196-1.399.679-2.007 1.45-.609.772-.921 2.199-.939 4.287-.017 2.086.817 4.128 2.502 6.129C-8.449.648-5.45 2.379-1.138 3.844c4.313 1.465 5.435 2.121 6.29 3.003 2.709 2.793 2.604 4.487 2.338 6-.265 1.512-1.109 3.048-2.525 4.608-1.42 1.56-2.051 2.577-1.896 3.055.154.476.439.936.85 1.381" style="fill:#2c2963;fill-opacity:1;fill-rule:nonzero;stroke:none" transform="translate(75.3 35.727)"/></g></g></svg>